<?xml version="1.0"?>
<svg xmlns="http://www.w3.org/2000/svg" xmlns:lc="http://www.librecad.org" xmlns:xlink="http://www.w3.org/1999/xlink" width="160.79571481mm" height="113.68230523mm" viewBox="0 0 160.79571481 113.68230523">
    <g lc:layername="0" lc:is_locked="false" lc:is_construction="false" fill="none" stroke="black" stroke-width="1">
        <circle cx="140.74571481" cy="58.13660042" r="1.2"/>
        <circle cx="124.22071481" cy="17.81159042" r="1.2"/>
        <circle cx="73.84457207" cy="66.03097475" r="1.2"/>
        <circle cx="29.91346045" cy="84.22783699" r="1.2"/>
        <circle cx="64.54571481" cy="7.53659042" r="1.2"/>
        <circle cx="118.05705826" cy="67.41159042" r="1.2"/>
        <circle cx="140.74571481" cy="20.03660042" r="1.2"/>
        <path d="M159.79571481,78.18659042 L116.40982348,78.18659042 A1,1 0 0,0 115.40982348,79.18659042 L115.40982348,84.75641824 A1,1 0 0,1 114.40982348,85.75641824 L85.83482348,85.75641824 A71.34955792,71.34955792 0 0,0 35.38306724,106.65421993 L28.64787514,113.38941202 A1,1 0 0,1 27.23366158,113.38941202 L0.29289322,86.44864365 A1,1 0 0,1 0.29289322,85.03443009 L7.02808531,78.299238 A111.44955792,111.44955792 0 0,1 44.12000804,53.7576422 A1,1 0 0,0 44.74571481,52.8303318 L44.74571481,6.23537213 A1,1 0 0,1 45.48890756,5.26890949 A157.10597617,157.10597617 0 0,1 139.293452,9.37492735 A157.10923061,157.10923061 0 0,1 142.81305447,10.6963831 A157.10597617,157.10597617 0 0,1 160.26950123,18.7522032 A1,1 0 0,1 160.79571481,19.63284298 L160.79571481,77.18659042 A1,1 0 0,1 159.79571481,78.18659042 Z "/>
        <path d="M145.97071481,36.56160042 A0.3,0.3 0 0,1 146.27071481,36.86160042 L146.27071481,38.01160042 A0.3,0.3 0 0,0 146.57071481,38.31160042 L153.97071481,38.31160042 A0.3,0.3 0 0,0 154.27071481,38.01160042 L154.27071481,36.86160042 A0.3,0.3 0 0,1 154.57071481,36.56160042 L156.97071481,36.56160042 A0.3,0.3 0 0,0 157.27071481,36.26160042 L157.27071481,22.86160042 A0.3,0.3 0 0,0 156.97071481,22.56160042 L154.57071481,22.56160042 A0.3,0.3 0 0,1 154.27071481,22.26160042 L154.27071481,21.11160042 A0.3,0.3 0 0,0 153.97071481,20.81160042 L146.57071481,20.81160042 A0.3,0.3 0 0,0 146.27071481,21.11160042 L146.27071481,22.26160042 A0.3,0.3 0 0,1 145.97071481,22.56160042 L143.57071481,22.56160042 A0.3,0.3 0 0,0 143.27071481,22.86160042 L143.27071481,36.26160042 A0.3,0.3 0 0,0 143.57071481,36.56160042 L145.97071481,36.56160042 Z "/>
        <path d="M145.97071481,74.66160042 A0.3,0.3 0 0,1 146.27071481,74.96160042 L146.27071481,76.11160042 A0.3,0.3 0 0,0 146.57071481,76.41160042 L153.97071481,76.41160042 A0.3,0.3 0 0,0 154.27071481,76.11160042 L154.27071481,74.96160042 A0.3,0.3 0 0,1 154.57071481,74.66160042 L156.97071481,74.66160042 A0.3,0.3 0 0,0 157.27071481,74.36160042 L157.27071481,60.96160042 A0.3,0.3 0 0,0 156.97071481,60.66160042 L154.57071481,60.66160042 A0.3,0.3 0 0,1 154.27071481,60.36160042 L154.27071481,59.21160042 A0.3,0.3 0 0,0 153.97071481,58.91160042 L146.57071481,58.91160042 A0.3,0.3 0 0,0 146.27071481,59.21160042 L146.27071481,60.36160042 A0.3,0.3 0 0,1 145.97071481,60.66160042 L143.57071481,60.66160042 A0.3,0.3 0 0,0 143.27071481,60.96160042 L143.27071481,74.36160042 A0.3,0.3 0 0,0 143.57071481,74.66160042 L145.97071481,74.66160042 Z "/>
        <path d="M108.88482348,83.68141824 A0.3,0.3 0 0,1 108.58482348,83.98141824 L101.18482348,83.98141824 A0.3,0.3 0 0,1 100.88482348,83.68141824 L100.88482348,82.53141824 A0.3,0.3 0 0,0 100.58482348,82.23141824 L98.18482348,82.23141824 A0.3,0.3 0 0,1 97.88482348,81.93141824 L97.88482348,68.53141824 A0.3,0.3 0 0,1 98.18482348,68.23141824 L100.58482348,68.23141824 A0.3,0.3 0 0,0 100.88482348,67.93141824 L100.88482348,66.78141824 A0.3,0.3 0 0,1 101.18482348,66.48141824 L108.58482348,66.48141824 A0.3,0.3 0 0,1 108.88482348,66.78141824 L108.88482348,67.93141824 A0.3,0.3 0 0,0 109.18482348,68.23141824 L111.58482348,68.23141824 A0.3,0.3 0 0,1 111.88482348,68.53141824 L111.88482348,81.93141824 A0.3,0.3 0 0,1 111.58482348,82.23141824 L109.18482348,82.23141824 A0.3,0.3 0 0,0 108.88482348,82.53141824 L108.88482348,83.68141824 Z "/>
        <path d="M21.17022093,82.54187869 A0.3,0.3 0 0,1 21.17022093,82.11761462 L23.39760729,79.89022826 A0.3,0.3 0 0,0 23.39760729,79.46596419 L17.33416665,73.40252354 A0.3,0.3 0 0,0 16.90990258,73.40252354 L4.78302128,85.52940484 A0.3,0.3 0 0,0 4.78302128,85.95366891 L6.18839601,87.35904363 A0.3,0.3 0 0,1 6.18839601,87.7833077 L5.37522321,88.5964805 A0.3,0.3 0 0,0 5.37522321,89.02074457 L7.77938626,91.42490763 A0.3,0.3 0 0,0 8.20365033,91.42490763 L9.01682313,90.61173483 A0.3,0.3 0 0,1 9.4410872,90.61173483 L23.07057041,104.24121803 A0.3,0.3 0 0,1 23.07057041,104.6654821 L22.25739761,105.4786549 A0.3,0.3 0 0,0 22.25739761,105.90291897 L24.66156067,108.30708203 A0.3,0.3 0 0,0 25.08582473,108.30708203 L25.89899753,107.49390923 A0.3,0.3 0 0,1 26.3232616,107.49390923 L27.72863633,108.89928396 A0.3,0.3 0 0,0 28.1529004,108.89928396 L40.27978169,96.77240266 A0.3,0.3 0 0,0 40.27978169,96.34813859 L34.21634105,90.28469794 A0.3,0.3 0 0,0 33.79207698,90.28469794 L31.56469062,92.5120843 A0.3,0.3 0 0,1 31.14042655,92.5120843 L21.17022093,82.54187869 Z "/>
        <path d="M86.12071481,42.96159042 L86.12071481,56.36159042 A0.3,0.3 0 0,0 86.42071481,56.66159042 L99.82071481,56.66159042 A0.3,0.3 0 0,0 100.12071481,56.36159042 L100.12071481,42.96159042 A0.3,0.3 0 0,0 99.82071481,42.66159042 L86.42071481,42.66159042 A0.3,0.3 0 0,0 86.12071481,42.96159042 Z "/>
        <path d="M100.12071481,18.26159042 L100.12071481,4.86159042 A0.3,0.3 0 0,0 99.82071481,4.56159042 L86.42071481,4.56159042 A0.3,0.3 0 0,0 86.12071481,4.86159042 L86.12071481,18.26159042 A0.3,0.3 0 0,0 86.42071481,18.56159042 L99.82071481,18.56159042 A0.3,0.3 0 0,0 100.12071481,18.26159042 Z "/>
        <path d="M48.02071481,51.96159042 L48.02071481,65.36159042 A0.3,0.3 0 0,0 48.32071481,65.66159042 L61.72071481,65.66159042 A0.3,0.3 0 0,0 62.02071481,65.36159042 L62.02071481,51.96159042 A0.3,0.3 0 0,0 61.72071481,51.66159042 L48.32071481,51.66159042 A0.3,0.3 0 0,0 48.02071481,51.96159042 Z "/>
        <path d="M78.83482348,68.53141824 L78.83482348,81.93141824 A0.3,0.3 0 0,0 79.13482348,82.23141824 L92.53482348,82.23141824 A0.3,0.3 0 0,0 92.83482348,81.93141824 L92.83482348,68.53141824 A0.3,0.3 0 0,0 92.53482348,68.23141824 L79.13482348,68.23141824 A0.3,0.3 0 0,0 78.83482348,68.53141824 Z "/>
        <path d="M105.47071481,24.56159042 L118.87071481,24.56159042 A0.3,0.3 0 0,0 119.17071481,24.26159042 L119.17071481,10.86159042 A0.3,0.3 0 0,0 118.87071481,10.56159042 L105.47071481,10.56159042 A0.3,0.3 0 0,0 105.17071481,10.86159042 L105.17071481,24.26159042 A0.3,0.3 0 0,0 105.47071481,24.56159042 Z "/>
        <path d="M137.92071481,41.61159042 L124.52071481,41.61159042 A0.3,0.3 0 0,0 124.22071481,41.91159042 L124.22071481,55.31159042 A0.3,0.3 0 0,0 124.52071481,55.61159042 L137.92071481,55.61159042 A0.3,0.3 0 0,0 138.22071481,55.31159042 L138.22071481,41.91159042 A0.3,0.3 0 0,0 137.92071481,41.61159042 Z "/>
        <path d="M124.22071481,60.96159042 L124.22071481,74.36159042 A0.3,0.3 0 0,0 124.52071481,74.66159042 L137.92071481,74.66159042 A0.3,0.3 0 0,0 138.22071481,74.36159042 L138.22071481,60.96159042 A0.3,0.3 0 0,0 137.92071481,60.66159042 L124.52071481,60.66159042 A0.3,0.3 0 0,0 124.22071481,60.96159042 Z "/>
        <path d="M137.92071481,22.56159042 L124.52071481,22.56159042 A0.3,0.3 0 0,0 124.22071481,22.86159042 L124.22071481,36.26159042 A0.3,0.3 0 0,0 124.52071481,36.56159042 L137.92071481,36.56159042 A0.3,0.3 0 0,0 138.22071481,36.26159042 L138.22071481,22.86159042 A0.3,0.3 0 0,0 137.92071481,22.56159042 Z "/>
        <path d="M67.37071481,25.06159042 L80.77071481,25.06159042 A0.3,0.3 0 0,0 81.07071481,24.76159042 L81.07071481,11.36159042 A0.3,0.3 0 0,0 80.77071481,11.06159042 L67.37071481,11.06159042 A0.3,0.3 0 0,0 67.07071481,11.36159042 L67.07071481,24.76159042 A0.3,0.3 0 0,0 67.37071481,25.06159042 Z "/>
        <path d="M67.37071481,44.11159042 L80.77071481,44.11159042 A0.3,0.3 0 0,0 81.07071481,43.81159042 L81.07071481,30.41159042 A0.3,0.3 0 0,0 80.77071481,30.11159042 L67.37071481,30.11159042 A0.3,0.3 0 0,0 67.07071481,30.41159042 L67.07071481,43.81159042 A0.3,0.3 0 0,0 67.37071481,44.11159042 Z "/>
        <path d="M100.12071481,37.31159042 L100.12071481,23.91159042 A0.3,0.3 0 0,0 99.82071481,23.61159042 L86.42071481,23.61159042 A0.3,0.3 0 0,0 86.12071481,23.91159042 L86.12071481,37.31159042 A0.3,0.3 0 0,0 86.42071481,37.61159042 L99.82071481,37.61159042 A0.3,0.3 0 0,0 100.12071481,37.31159042 Z "/>
        <path d="M48.02071481,32.91159042 L48.02071481,46.31159042 A0.3,0.3 0 0,0 48.32071481,46.61159042 L61.72071481,46.61159042 A0.3,0.3 0 0,0 62.02071481,46.31159042 L62.02071481,32.91159042 A0.3,0.3 0 0,0 61.72071481,32.61159042 L48.32071481,32.61159042 A0.3,0.3 0 0,0 48.02071481,32.91159042 Z "/>
        <path d="M73.13969696,82.68119587 L69.67152176,69.7377898 A0.3,0.3 0 0,0 69.3040983,69.52565777 L56.36069223,72.99383297 A0.3,0.3 0 0,0 56.14856019,73.36125643 L59.6167354,86.30466251 A0.3,0.3 0 0,0 59.98415886,86.51679454 L72.92756493,83.04861934 A0.3,0.3 0 0,0 73.13969696,82.68119587 Z "/>
        <path d="M105.47071481,43.61159042 L118.87071481,43.61159042 A0.3,0.3 0 0,0 119.17071481,43.31159042 L119.17071481,29.91159042 A0.3,0.3 0 0,0 118.87071481,29.61159042 L105.47071481,29.61159042 A0.3,0.3 0 0,0 105.17071481,29.91159042 L105.17071481,43.31159042 A0.3,0.3 0 0,0 105.47071481,43.61159042 Z "/>
        <path d="M143.27071481,41.91160042 L143.27071481,55.31160042 A0.3,0.3 0 0,0 143.57071481,55.61160042 L156.97071481,55.61160042 A0.3,0.3 0 0,0 157.27071481,55.31160042 L157.27071481,41.91160042 A0.3,0.3 0 0,0 156.97071481,41.61160042 L143.57071481,41.61160042 A0.3,0.3 0 0,0 143.27071481,41.91160042 Z "/>
        <path d="M105.17071481,48.96159042 L105.17071481,62.36159042 A0.3,0.3 0 0,0 105.47071481,62.66159042 L118.87071481,62.66159042 A0.3,0.3 0 0,0 119.17071481,62.36159042 L119.17071481,48.96159042 A0.3,0.3 0 0,0 118.87071481,48.66159042 L105.47071481,48.66159042 A0.3,0.3 0 0,0 105.17071481,48.96159042 Z "/>
        <path d="M48.02071481,13.86159042 L48.02071481,27.26159042 A0.3,0.3 0 0,0 48.32071481,27.56159042 L61.72071481,27.56159042 A0.3,0.3 0 0,0 62.02071481,27.26159042 L62.02071481,13.86159042 A0.3,0.3 0 0,0 61.72071481,13.56159042 L48.32071481,13.56159042 A0.3,0.3 0 0,0 48.02071481,13.86159042 Z "/>
        <path d="M67.07071481,49.46159042 L67.07071481,62.86159042 A0.3,0.3 0 0,0 67.37071481,63.16159042 L80.77071481,63.16159042 A0.3,0.3 0 0,0 81.07071481,62.86159042 L81.07071481,49.46159042 A0.3,0.3 0 0,0 80.77071481,49.16159042 L67.37071481,49.16159042 A0.3,0.3 0 0,0 67.07071481,49.46159042 Z "/>
        <path d="M38.89161669,89.79795694 A0.3,0.3 0 0,1 38.78180907,90.20776456 L37.78587985,90.78276456 A0.3,0.3 0 0,0 37.67607223,91.19257218 L39.37607223,94.13705856 A0.3,0.3 0 0,0 39.78587985,94.24686618 L40.78180907,93.67186618 A0.3,0.3 0 0,1 41.19161669,93.7816738 L42.18536669,95.50289929 A0.3,0.3 0 0,0 42.59517431,95.61270691 L57.44750999,87.03770691 A0.3,0.3 0 0,0 57.55731761,86.62789929 L53.26981761,79.20173145 A0.3,0.3 0 0,0 52.86000999,79.09192383 L50.13202996,80.66692383 A0.3,0.3 0 0,1 49.72222234,80.55711621 L42.67222234,68.34615801 A0.3,0.3 0 0,1 42.78202996,67.93635039 L45.51000999,66.36135039 A0.3,0.3 0 0,0 45.61981761,65.95154277 L41.33231761,58.52537493 A0.3,0.3 0 0,0 40.92250999,58.41556731 L26.07017431,66.99056731 A0.3,0.3 0 0,0 25.96036669,67.40037493 L26.95411669,69.12160042 A0.3,0.3 0 0,1 26.84430907,69.53140805 L25.84837985,70.10640805 A0.3,0.3 0 0,0 25.73857223,70.51621567 L27.43857223,73.46070204 A0.3,0.3 0 0,0 27.84837985,73.57050966 L28.84430907,72.99550966 A0.3,0.3 0 0,1 29.25411669,73.10531728 L38.89161669,89.79795694 Z "/>
    </g>
</svg>
