<?xml version="1.0"?>
<svg xmlns="http://www.w3.org/2000/svg" xmlns:lc="http://www.librecad.org" xmlns:xlink="http://www.w3.org/1999/xlink" width="160.79571481mm" height="113.68230523mm" viewBox="0 0 160.79571481 113.68230523">
    <g lc:layername="0" lc:is_locked="false" lc:is_construction="false" fill="none" stroke="black" stroke-width="1">
        <circle cx="140.74571481" cy="58.13660042" r="1.2"/>
        <circle cx="124.22071481" cy="17.81159042" r="1.2"/>
        <circle cx="73.84457207" cy="66.03097475" r="1.2"/>
        <circle cx="29.91346045" cy="84.22783699" r="1.2"/>
        <circle cx="64.54571481" cy="7.53659042" r="1.2"/>
        <circle cx="118.05705826" cy="67.41159042" r="1.2"/>
        <circle cx="140.74571481" cy="20.03660042" r="1.2"/>
        <path d="M21.80081571,13.64192633 A1,1 0 0,1 22.20840123,13.55509337 L43.74571481,13.55509337 A1,1 0 0,0 44.74571481,12.55509337 L44.74571481,6.23537213 A1,1 0 0,1 45.48890756,5.26890949 A157.10597617,157.10597617 0 0,1 139.293452,9.37492735 A157.10923061,157.10923061 0 0,1 142.81305447,10.6963831 A157.10597617,157.10597617 0 0,1 160.26950123,18.7522032 A1,1 0 0,1 160.79571481,19.63284298 L160.79571481,77.18659042 A1,1 0 0,1 159.79571481,78.18659042 L116.40982348,78.18659042 A1,1 0 0,0 115.40982348,79.18659042 L115.40982348,84.75641824 A1,1 0 0,1 114.40982348,85.75641824 L85.83482348,85.75641824 A71.34955792,71.34955792 0 0,0 35.38306724,106.65421993 L28.64787514,113.38941202 A1,1 0 0,1 27.23366158,113.38941202 L0.29289322,86.44864365 A1,1 0 0,1 0.29289322,85.03443009 L7.02808531,78.299238 A111.44955792,111.44955792 0 0,1 11.66124974,73.92373695 A1,1 0 0,0 11.99571481,73.17737025 L11.99571481,19.03519706 A1,1 0 0,1 12.52911443,18.15072881 A157.10597617,157.10597617 0 0,1 21.80081571,13.64192633 Z "/>
    </g>
</svg>
