999
dxfrw 0.6.3
  0
SECTION
  2
HEADER
  9
$ACADVER
  1
AC1021
  9
$DWGCODEPAGE
  3
ANSI_1252
  9
$INSBASE
 10
0
 20
0
 30
0
  9
$EXTMIN
 10
-131.2207148105926
 20
-46.02071481059247
 30
0
  9
$EXTMAX
 10
29.57500000000007
 20
67.66159042424509
 30
0
  9
$LIMMIN
 10
0
 20
0
  9
$LIMMAX
 10
420
 20
297
  9
$ORTHOMODE
 70
    0
  9
$REGENMODE
 70
    1
  9
$FILLMODE
 70
    1
  9
$QTEXTMODE
 70
    0
  9
$MIRRTEXT
 70
    0
  9
$LTSCALE
 40
1
  9
$ATTMODE
 70
    0
  9
$TEXTSIZE
 40
2.5
  9
$TRACEWID
 40
15.68
  9
$TEXTSTYLE
  7
STANDARD
  9
$CLAYER
  8
0
  9
$CELTYPE
  6
BYLAYER
  9
$CECOLOR
 62
  256
  9
$CELTSCALE
 40
1
  9
$DISPSILH
 70
    0
  9
$DIMSCALE
 40
2.5
  9
$DIMASZ
 40
2.5
  9
$DIMEXO
 40
0.625
  9
$DIMDLI
 40
3.75
  9
$DIMRND
 40
0
  9
$DIMDLE
 40
0
  9
$DIMEXE
 40
1.25
  9
$DIMTP
 40
0
  9
$DIMTM
 40
0
  9
$DIMTXT
 40
2.5
  9
$DIMCEN
 40
2.5
  9
$DIMTSZ
 40
0
  9
$DIMTOL
 70
    0
  9
$DIMLIM
 70
    0
  9
$DIMTIH
 70
    0
  9
$DIMTOH
 70
    0
  9
$DIMSE1
 70
    0
  9
$DIMSE2
 70
    0
  9
$DIMTAD
 70
    1
  9
$DIMZIN
 70
    8
  9
$DIMBLK
  1

  9
$DIMASO
 70
    1
  9
$DIMSHO
 70
    1
  9
$DIMPOST
  1

  9
$DIMAPOST
  1

  9
$DIMALT
 70
    0
  9
$DIMALTD
 70
    3
  9
$DIMALTF
 40
0.03937
  9
$DIMLFAC
 40
1
  9
$DIMTOFL
 70
    1
  9
$DIMTVP
 40
0
  9
$DIMTIX
 70
    0
  9
$DIMSOXD
 70
    0
  9
$DIMSAH
 70
    0
  9
$DIMBLK1
  1

  9
$DIMBLK2
  1

  9
$DIMSTYLE
  2
Standard
  9
$DIMCLRD
 70
    0
  9
$DIMCLRE
 70
    0
  9
$DIMCLRT
 70
    0
  9
$DIMTFAC
 40
1
  9
$DIMGAP
 40
0.625
  9
$DIMJUST
 70
    0
  9
$DIMSD1
 70
    0
  9
$DIMSD2
 70
    0
  9
$DIMTOLJ
 70
    0
  9
$DIMTZIN
 70
    8
  9
$DIMALTZ
 70
    0
  9
$DIMALTTZ
 70
    0
  9
$DIMUPT
 70
    0
  9
$DIMDEC
 70
    2
  9
$DIMTDEC
 70
    2
  9
$DIMALTU
 70
    2
  9
$DIMALTTD
 70
    3
  9
$DIMTXSTY
  7
STANDARD
  9
$DIMAUNIT
 70
    0
  9
$DIMADEC
 70
    0
  9
$DIMALTRND
 40
0
  9
$DIMAZIN
 70
    0
  9
$DIMDSEP
 70
   44
  9
$DIMATFIT
 70
    3
  9
$DIMFRAC
 70
    0
  9
$DIMLDRBLK
  1
STANDARD
  9
$DIMLUNIT
 70
    2
  9
$DIMLWD
 70
   -2
  9
$DIMLWE
 70
   -2
  9
$DIMTMOVE
 70
    0
  9
$DIMFXL
 40
1
  9
$DIMFXLON
 70
    0
  9
$DIMJOGANG
 40
0.7854
  9
$DIMTFILL
 70
    0
  9
$DIMTFILLCLR
 70
    0
  9
$DIMARCSYM
 70
    0
  9
$DIMLTYPE
  6

  9
$DIMLTEX1
  6

  9
$DIMLTEX2
  6

  9
$LUNITS
 70
    2
  9
$LUPREC
 70
    4
  9
$SKETCHINC
 40
1
  9
$FILLETRAD
 40
0
  9
$AUNITS
 70
    0
  9
$AUPREC
 70
    2
  9
$MENU
  1
.
  9
$ELEVATION
 40
0
  9
$PELEVATION
 40
0
  9
$THICKNESS
 40
0
  9
$LIMCHECK
 70
    0
  9
$CHAMFERA
 40
0
  9
$CHAMFERB
 40
0
  9
$CHAMFERC
 40
0
  9
$CHAMFERD
 40
0
  9
$SKPOLY
 70
    0
  9
$USRTIMER
 70
    1
  9
$ANGBASE
 50
0
  9
$ANGDIR
 70
    0
  9
$PDMODE
 70
   34
  9
$PDSIZE
 40
0
  9
$PLINEWID
 40
0
  9
$SPLFRAME
 70
    0
  9
$SPLINETYPE
 70
    2
  9
$SPLINESEGS
 70
    8
  9
$HANDSEED
  5
20000
  9
$SURFTAB1
 70
    6
  9
$SURFTAB2
 70
    6
  9
$SURFTYPE
 70
    6
  9
$SURFU
 70
    6
  9
$SURFV
 70
    6
  9
$UCSBASE
  2

  9
$UCSNAME
  2

  9
$UCSORG
 10
0
 20
0
 30
0
  9
$UCSXDIR
 10
1
 20
0
 30
0
  9
$UCSYDIR
 10
0
 20
1
 30
0
  9
$UCSORTHOREF
  2

  9
$UCSORTHOVIEW
 70
    0
  9
$UCSORGTOP
 10
0
 20
0
 30
0
  9
$UCSORGBOTTOM
 10
0
 20
0
 30
0
  9
$UCSORGLEFT
 10
0
 20
0
 30
0
  9
$UCSORGRIGHT
 10
0
 20
0
 30
0
  9
$UCSORGFRONT
 10
0
 20
0
 30
0
  9
$UCSORGBACK
 10
0
 20
0
 30
0
  9
$PUCSBASE
  2

  9
$PUCSNAME
  2

  9
$PUCSORG
 10
0
 20
0
 30
0
  9
$PUCSXDIR
 10
1
 20
0
 30
0
  9
$PUCSYDIR
 10
0
 20
1
 30
0
  9
$PUCSORTHOREF
  2

  9
$PUCSORTHOVIEW
 70
    0
  9
$PUCSORGTOP
 10
0
 20
0
 30
0
  9
$PUCSORGBOTTOM
 10
0
 20
0
 30
0
  9
$PUCSORGLEFT
 10
0
 20
0
 30
0
  9
$PUCSORGRIGHT
 10
0
 20
0
 30
0
  9
$PUCSORGFRONT
 10
0
 20
0
 30
0
  9
$PUCSORGBACK
 10
0
 20
0
 30
0
  9
$USERI1
 70
    0
  9
$USERI2
 70
    0
  9
$USERI3
 70
    0
  9
$USERI4
 70
    0
  9
$USERI5
 70
    0
  9
$USERR1
 40
0
  9
$USERR2
 40
0
  9
$USERR3
 40
0
  9
$USERR4
 40
0
  9
$USERR5
 40
0
  9
$WORLDVIEW
 70
    1
  9
$SHADEDGE
 70
    3
  9
$SHADEDIF
 70
   70
  9
$TILEMODE
 70
    1
  9
$MAXACTVP
 70
   64
  9
$PINSBASE
 10
0
 20
0
 30
0
  9
$PLIMCHECK
 70
    0
  9
$PEXTMIN
 10
0
 20
0
 30
0
  9
$PEXTMAX
 10
0
 20
0
 30
0
  9
$GRIDMODE
 70
    1
  9
$SNAPSTYLE
 70
    0
  9
$PLIMMIN
 10
0
 20
0
  9
$PLIMMAX
 10
210
 20
297
  9
$UNITMODE
 70
    0
  9
$VISRETAIN
 70
    1
  9
$PLINEGEN
 70
    0
  9
$PSLTSCALE
 70
    1
  9
$TREEDEPTH
 70
 3020
  9
$CMLSTYLE
  2
Standard
  9
$CMLJUST
 70
    0
  9
$CMLSCALE
 40
20
  9
$PROXYGRAPHICS
 70
    1
  9
$MEASUREMENT
 70
    1
  9
$CELWEIGHT
370
   -1
  9
$ENDCAPS
280
    0
  9
$JOINSTYLE
280
    0
  9
$LWDISPLAY
290
    0
  9
$INSUNITS
 70
    4
  9
$HYPERLINKBASE
  1

  9
$STYLESHEET
  1

  9
$XEDIT
290
    1
  9
$CEPSNTYPE
380
    0
  9
$PSTYLEMODE
290
    1
  9
$EXTNAMES
290
    1
  9
$PSVPSCALE
 40
1
  9
$OLESTARTUP
290
    0
  9
$SORTENTS
280
  127
  9
$INDEXCTL
280
    0
  9
$HIDETEXT
280
    1
  9
$XCLIPFRAME
290
    0
  9
$HALOGAP
280
    0
  9
$OBSCOLOR
 70
  257
  9
$OBSLTYPE
280
    0
  9
$INTERSECTIONDISPLAY
280
    0
  9
$INTERSECTIONCOLOR
 70
  257
  9
$DIMASSOC
280
    1
  9
$PROJECTNAME
  1

  9
$CAMERADISPLAY
290
    0
  9
$LENSLENGTH
 40
50
  9
$CAMERAHEIGHT
 40
0
  9
$STEPSPERSEC
 40
2
  9
$STEPSIZE
 40
50
  9
$3DDWFPREC
 40
2
  9
$PSOLWIDTH
 40
5
  9
$PSOLHEIGHT
 40
80
  9
$LOFTANG1
 40
1.570796326794897
  9
$LOFTANG2
 40
1.570796326794897
  9
$LOFTMAG1
 40
0
  9
$LOFTMAG2
 40
0
  9
$LOFTPARAM
 70
    7
  9
$LOFTNORMALS
280
    1
  9
$LATITUDE
 40
1
  9
$LONGITUDE
 40
1
  9
$NORTHDIRECTION
 40
0
  9
$TIMEZONE
 70
-8000
  9
$LIGHTGLYPHDISPLAY
280
    1
  9
$TILEMODELIGHTSYNCH
280
    1
  9
$SOLIDHIST
280
    1
  9
$SHOWHIST
280
    1
  9
$DWFFRAME
280
    2
  9
$DGNFRAME
280
    0
  9
$REALWORLDSCALE
290
    1
  9
$INTERFERECOLOR
 62
    1
  9
$CSHADOW
280
    0
  9
$SHADOWPLANELOCATION
 40
0
  0
ENDSEC
  0
SECTION
  2
CLASSES
  0
ENDSEC
  0
SECTION
  2
TABLES
  0
TABLE
  2
VPORT
  5
8
330
0
100
AcDbSymbolTable
 70
    1
  0
VPORT
  5
31
330
2
100
AcDbSymbolTableRecord
100
AcDbViewportTableRecord
  2
*ACTIVE
 70
    0
 10
0
 20
0
 11
1
 21
1
 12
54.53335537096437
 22
43.3503995047835
 13
0
 23
0
 14
10
 24
10
 15
10
 25
10
 16
0
 26
0
 36
1
 17
0
 27
0
 37
0
 40
158.1401523664636
 41
1.831946755407654
 42
50
 43
0
 44
0
 50
0
 51
0
 71
    0
 72
  100
 73
    1
 74
    3
 75
    0
 76
    1
 77
    0
 78
    0
281
    0
 65
    1
110
0
120
0
130
0
111
1
121
0
131
0
112
0
122
1
132
0
 79
    0
146
0
348
10020
 60
    7
 61
    5
292
1
282
    1
141
0
142
0
 63
  250
421
3358443
  0
ENDTAB
  0
TABLE
  2
LTYPE
  5
5
330
0
100
AcDbSymbolTable
 70
    4
  0
LTYPE
  5
14
330
5
100
AcDbSymbolTableRecord
100
AcDbLinetypeTableRecord
  2
ByBlock
 70
    0
  3

 72
   65
 73
    0
 40
0
  0
LTYPE
  5
15
330
5
100
AcDbSymbolTableRecord
100
AcDbLinetypeTableRecord
  2
ByLayer
 70
    0
  3

 72
   65
 73
    0
 40
0
  0
LTYPE
  5
16
330
5
100
AcDbSymbolTableRecord
100
AcDbLinetypeTableRecord
  2
Continuous
 70
    0
  3
Solid line
 72
   65
 73
    0
 40
0
  0
LTYPE
  5
32
330
5
100
AcDbSymbolTableRecord
100
AcDbLinetypeTableRecord
  2
DOT
 70
    0
  3
Dot . . . . . . . . . . . . . . . . . . . . . .
 72
   65
 73
    2
 40
6.35
 49
0
 74
    0
 49
-6.35
 74
    0
  0
LTYPE
  5
33
330
5
100
AcDbSymbolTableRecord
100
AcDbLinetypeTableRecord
  2
DOTTINY
 70
    0
  3
Dot (.15x) .....................................
 72
   65
 73
    2
 40
0.9525
 49
0
 74
    0
 49
-0.9525
 74
    0
  0
LTYPE
  5
34
330
5
100
AcDbSymbolTableRecord
100
AcDbLinetypeTableRecord
  2
DOT2
 70
    0
  3
Dot (.5x) .....................................
 72
   65
 73
    2
 40
3.175
 49
0
 74
    0
 49
-3.175
 74
    0
  0
LTYPE
  5
35
330
5
100
AcDbSymbolTableRecord
100
AcDbLinetypeTableRecord
  2
DOTX2
 70
    0
  3
Dot (2x) .  .  .  .  .  .  .  .  .  .  .  .  .
 72
   65
 73
    2
 40
12.7
 49
0
 74
    0
 49
-12.7
 74
    0
  0
LTYPE
  5
36
330
5
100
AcDbSymbolTableRecord
100
AcDbLinetypeTableRecord
  2
DASHED
 70
    0
  3
Dashed _ _ _ _ _ _ _ _ _ _ _ _ _ _ _ _ _
 72
   65
 73
    2
 40
19.05
 49
12.7
 74
    0
 49
-6.35
 74
    0
  0
LTYPE
  5
37
330
5
100
AcDbSymbolTableRecord
100
AcDbLinetypeTableRecord
  2
DASHEDTINY
 70
    0
  3
Dashed (.15x) _ _ _ _ _ _ _ _ _ _ _ _ _ _ _ _ _
 72
   65
 73
    2
 40
2.8575
 49
1.905
 74
    0
 49
-0.9525
 74
    0
  0
LTYPE
  5
38
330
5
100
AcDbSymbolTableRecord
100
AcDbLinetypeTableRecord
  2
DASHED2
 70
    0
  3
Dashed (.5x) _ _ _ _ _ _ _ _ _ _ _ _ _ _ _ _ _
 72
   65
 73
    2
 40
9.524999999999999
 49
6.35
 74
    0
 49
-3.175
 74
    0
  0
LTYPE
  5
39
330
5
100
AcDbSymbolTableRecord
100
AcDbLinetypeTableRecord
  2
DASHEDX2
 70
    0
  3
Dashed (2x) ____  ____  ____  ____  ____  ___
 72
   65
 73
    2
 40
38.09999999999999
 49
25.4
 74
    0
 49
-12.7
 74
    0
  0
LTYPE
  5
3A
330
5
100
AcDbSymbolTableRecord
100
AcDbLinetypeTableRecord
  2
DASHDOT
 70
    0
  3
Dash dot __ . __ . __ . __ . __ . __ . __ . __
 72
   65
 73
    4
 40
25.4
 49
12.7
 74
    0
 49
-6.35
 74
    0
 49
0
 74
    0
 49
-6.35
 74
    0
  0
LTYPE
  5
3B
330
5
100
AcDbSymbolTableRecord
100
AcDbLinetypeTableRecord
  2
DASHDOTTINY
 70
    0
  3
Dash dot (.15x) _._._._._._._._._._._._._._._.
 72
   65
 73
    4
 40
3.81
 49
1.905
 74
    0
 49
-0.9525
 74
    0
 49
0
 74
    0
 49
-0.9525
 74
    0
  0
LTYPE
  5
3C
330
5
100
AcDbSymbolTableRecord
100
AcDbLinetypeTableRecord
  2
DASHDOT2
 70
    0
  3
Dash dot (.5x) _._._._._._._._._._._._._._._.
 72
   65
 73
    4
 40
12.7
 49
6.35
 74
    0
 49
-3.175
 74
    0
 49
0
 74
    0
 49
-3.175
 74
    0
  0
LTYPE
  5
3D
330
5
100
AcDbSymbolTableRecord
100
AcDbLinetypeTableRecord
  2
DASHDOTX2
 70
    0
  3
Dash dot (2x) ____  .  ____  .  ____  .  ___
 72
   65
 73
    4
 40
50.8
 49
25.4
 74
    0
 49
-12.7
 74
    0
 49
0
 74
    0
 49
-12.7
 74
    0
  0
LTYPE
  5
3E
330
5
100
AcDbSymbolTableRecord
100
AcDbLinetypeTableRecord
  2
DIVIDE
 70
    0
  3
Divide ____ . . ____ . . ____ . . ____ . . ____
 72
   65
 73
    6
 40
31.75
 49
12.7
 74
    0
 49
-6.35
 74
    0
 49
0
 74
    0
 49
-6.35
 74
    0
 49
0
 74
    0
 49
-6.35
 74
    0
  0
LTYPE
  5
3F
330
5
100
AcDbSymbolTableRecord
100
AcDbLinetypeTableRecord
  2
DIVIDETINY
 70
    0
  3
Divide (.15x) __..__..__..__..__..__..__..__.._
 72
   65
 73
    6
 40
4.7625
 49
1.905
 74
    0
 49
-0.9525
 74
    0
 49
0
 74
    0
 49
-0.9525
 74
    0
 49
0
 74
    0
 49
-0.9525
 74
    0
  0
LTYPE
  5
40
330
5
100
AcDbSymbolTableRecord
100
AcDbLinetypeTableRecord
  2
DIVIDE2
 70
    0
  3
Divide (.5x) __..__..__..__..__..__..__..__.._
 72
   65
 73
    6
 40
15.875
 49
6.35
 74
    0
 49
-3.175
 74
    0
 49
0
 74
    0
 49
-3.175
 74
    0
 49
0
 74
    0
 49
-3.175
 74
    0
  0
LTYPE
  5
41
330
5
100
AcDbSymbolTableRecord
100
AcDbLinetypeTableRecord
  2
DIVIDEX2
 70
    0
  3
Divide (2x) ________  .  .  ________  .  .  _
 72
   65
 73
    6
 40
63.5
 49
25.4
 74
    0
 49
-12.7
 74
    0
 49
0
 74
    0
 49
-12.7
 74
    0
 49
0
 74
    0
 49
-12.7
 74
    0
  0
LTYPE
  5
42
330
5
100
AcDbSymbolTableRecord
100
AcDbLinetypeTableRecord
  2
BORDER
 70
    0
  3
Border __ __ . __ __ . __ __ . __ __ . __ __ .
 72
   65
 73
    6
 40
44.45
 49
12.7
 74
    0
 49
-6.35
 74
    0
 49
12.7
 74
    0
 49
-6.35
 74
    0
 49
0
 74
    0
 49
-6.35
 74
    0
  0
LTYPE
  5
43
330
5
100
AcDbSymbolTableRecord
100
AcDbLinetypeTableRecord
  2
BORDERTINY
 70
    0
  3
Border (.15x) __.__.__.__.__.__.__.__.__.__.__.
 72
   65
 73
    6
 40
6.6675
 49
1.905
 74
    0
 49
-0.9525
 74
    0
 49
1.905
 74
    0
 49
-0.9525
 74
    0
 49
0
 74
    0
 49
-0.9525
 74
    0
  0
LTYPE
  5
44
330
5
100
AcDbSymbolTableRecord
100
AcDbLinetypeTableRecord
  2
BORDER2
 70
    0
  3
Border (.5x) __.__.__.__.__.__.__.__.__.__.__.
 72
   65
 73
    6
 40
22.225
 49
6.35
 74
    0
 49
-3.175
 74
    0
 49
6.35
 74
    0
 49
-3.175
 74
    0
 49
0
 74
    0
 49
-3.175
 74
    0
  0
LTYPE
  5
45
330
5
100
AcDbSymbolTableRecord
100
AcDbLinetypeTableRecord
  2
BORDERX2
 70
    0
  3
Border (2x) ____  ____  .  ____  ____  .  ___
 72
   65
 73
    6
 40
88.89999999999999
 49
25.4
 74
    0
 49
-12.7
 74
    0
 49
25.4
 74
    0
 49
-12.7
 74
    0
 49
0
 74
    0
 49
-12.7
 74
    0
  0
LTYPE
  5
46
330
5
100
AcDbSymbolTableRecord
100
AcDbLinetypeTableRecord
  2
CENTER
 70
    0
  3
Center ____ _ ____ _ ____ _ ____ _ ____ _ ____
 72
   65
 73
    4
 40
50.8
 49
31.75
 74
    0
 49
-6.35
 74
    0
 49
6.35
 74
    0
 49
-6.35
 74
    0
  0
LTYPE
  5
47
330
5
100
AcDbSymbolTableRecord
100
AcDbLinetypeTableRecord
  2
CENTERTINY
 70
    0
  3
Center (.15x) ___ _ ___ _ ___ _ ___ _ ___ _ ___
 72
   65
 73
    4
 40
7.619999999999999
 49
4.7625
 74
    0
 49
-0.9525
 74
    0
 49
0.9525
 74
    0
 49
-0.9525
 74
    0
  0
LTYPE
  5
48
330
5
100
AcDbSymbolTableRecord
100
AcDbLinetypeTableRecord
  2
CENTER2
 70
    0
  3
Center (.5x) ___ _ ___ _ ___ _ ___ _ ___ _ ___
 72
   65
 73
    4
 40
28.575
 49
19.05
 74
    0
 49
-3.175
 74
    0
 49
3.175
 74
    0
 49
-3.175
 74
    0
  0
LTYPE
  5
49
330
5
100
AcDbSymbolTableRecord
100
AcDbLinetypeTableRecord
  2
CENTERX2
 70
    0
  3
Center (2x) ________  __  ________  __  _____
 72
   65
 73
    4
 40
101.6
 49
63.5
 74
    0
 49
-12.7
 74
    0
 49
12.7
 74
    0
 49
-12.7
 74
    0
  0
ENDTAB
  0
TABLE
  2
LAYER
  5
2
330
0
100
AcDbSymbolTable
 70
    1
  0
LAYER
  5
10
330
2
100
AcDbSymbolTableRecord
100
AcDbLayerTableRecord
  2
0
 70
    0
 62
    7
  6
CONTINUOUS
370
   -3
390
F
  0
ENDTAB
  0
TABLE
  2
STYLE
  5
3
330
0
100
AcDbSymbolTable
 70
    3
  0
STYLE
  5
4A
330
2
100
AcDbSymbolTableRecord
100
AcDbTextStyleTableRecord
  2
Standard
 70
    0
 40
0
 41
1
 50
0
 71
    0
 42
1
  3
txt
  4

  0
ENDTAB
  0
TABLE
  2
VIEW
  5
6
330
0
100
AcDbSymbolTable
 70
    0
  0
ENDTAB
  0
TABLE
  2
UCS
  5
7
330
0
100
AcDbSymbolTable
 70
    0
  0
ENDTAB
  0
TABLE
  2
APPID
  5
9
330
0
100
AcDbSymbolTable
 70
    1
  0
APPID
  5
12
330
9
100
AcDbSymbolTableRecord
100
AcDbRegAppTableRecord
  2
ACAD
 70
    0
  0
APPID
  5
4B
330
9
100
AcDbSymbolTableRecord
100
AcDbRegAppTableRecord
  2
LibreCad
 70
    0
  0
ENDTAB
  0
TABLE
  2
DIMSTYLE
  5
A
330
0
100
AcDbSymbolTable
 70
    1
100
AcDbDimStyleTable
 71
    1
  0
DIMSTYLE
105
4C
330
A
100
AcDbSymbolTableRecord
100
AcDbDimStyleTableRecord
  2
Standard
 70
    0
 40
2.5
 41
2.5
 42
0.625
 43
0.38
 44
1.25
 45
0
 46
0
 47
0
 48
0
 49
1
140
2.5
141
0.09
142
0
143
25.4
144
1
145
0
146
1
147
0.625
148
0
 71
    0
 72
    0
 73
    0
 74
    1
 75
    0
 76
    0
 77
    0
 78
    8
 79
    0
170
    0
171
    2
172
    0
173
    0
174
    0
175
    0
176
    0
177
    0
178
    0
179
    0
271
    2
272
    4
273
    2
274
    2
275
    0
276
    0
277
    2
278
   44
279
    0
280
    0
281
    0
282
    0
283
    1
284
    0
285
    0
286
    0
288
    0
289
    3
340
STANDARD
341

371
   -2
372
   -2
  0
ENDTAB
  0
TABLE
  2
BLOCK_RECORD
  5
1
330
0
100
AcDbSymbolTable
 70
    2
  0
BLOCK_RECORD
  5
1F
330
1
100
AcDbSymbolTableRecord
100
AcDbBlockTableRecord
  2
*Model_Space
 70
    0
280
    1
281
    0
  0
BLOCK_RECORD
  5
1E
330
1
100
AcDbSymbolTableRecord
100
AcDbBlockTableRecord
  2
*Paper_Space
 70
    0
280
    1
281
    0
  0
ENDTAB
  0
ENDSEC
  0
SECTION
  2
BLOCKS
  0
BLOCK
  5
20
330
1F
100
AcDbEntity
  8
0
100
AcDbBlockBegin
  2
*Model_Space
 70
    0
 10
0
 20
0
 30
0
  3
*Model_Space
  1

  0
ENDBLK
  5
21
330
1F
100
AcDbEntity
  8
0
100
AcDbBlockEnd
  0
BLOCK
  5
1C
330
1B
100
AcDbEntity
  8
0
100
AcDbBlockBegin
  2
*Paper_Space
 70
    0
 10
0
 20
0
 30
0
  3
*Paper_Space
  1

  0
ENDBLK
  5
1D
330
1F
100
AcDbEntity
  8
0
100
AcDbBlockEnd
  0
ENDSEC
  0
SECTION
  2
ENTITIES
  0
CIRCLE
  5
4D
100
AcDbEntity
  8
0
  6
ByLayer
 62
  256
370
   -1
100
AcDbCircle
 10
-7.000000000000036
 20
49.85000000000004
 40
1.2
  0
CIRCLE
  5
4E
100
AcDbEntity
  8
0
  6
ByLayer
 62
  256
370
   -1
100
AcDbCircle
 10
-57.37614273748244
 20
1.630615675617823
 40
1.2
  0
CIRCLE
  5
4F
100
AcDbEntity
  8
0
  6
ByLayer
 62
  256
370
   -1
100
AcDbCircle
 10
-101.3072543565829
 20
-16.56624656714013
 40
1.2
  0
CIRCLE
  5
50
100
AcDbEntity
  8
0
  6
ByLayer
 62
  256
370
   -1
100
AcDbCircle
 10
-66.67500000000007
 20
60.125
 40
1.2
  0
CIRCLE
  5
51
100
AcDbEntity
  8
0
  6
ByLayer
 62
  256
370
   -1
100
AcDbCircle
 10
-13.16365655498219
 20
0.2499999999999142
 40
1.2
  0
CIRCLE
  5
52
100
AcDbEntity
  8
0
  6
ByLayer
 62
  256
370
   -1
100
AcDbCircle
 10
9.525000000000002
 20
47.62499
 40
1.2
  0
LWPOLYLINE
  5
53
100
AcDbEntity
  8
0
  6
ByLayer
 62
  256
370
   -1
100
AcDbPolyline
 90
   21
 70
    1
 43
0
 10
28.575
 20
-10.52500000000008
 10
-14.8108913328809
 20
-10.525
 42
0.4142135623730961
 10
-15.81089133288091
 20
-11.525
 10
-15.81089133288091
 20
-17.09482781978555
 42
-0.4142135623730929
 10
-16.81089133288091
 20
-18.09482781978555
 10
-45.38589133288081
 20
-18.09482781978551
 42
0.1989123673796698
 10
-95.83764757539868
 20
-38.99262950097904
 10
-102.572839666198
 20
-45.72782159177897
 42
-0.4142135623731052
 10
-103.9870532285711
 20
-45.72782159177904
 10
-130.9278215917791
 20
-18.78705322857135
 42
-0.4142135623730971
 10
-130.9278215917792
 20
-17.37283966619829
 10
-124.1926295009771
 20
-10.63764757539613
 42
-0.1007800491146851
 10
-87.10070676626687
 20
13.90394822831521
 42
0.3058230674695296
 10
-86.47499999999991
 20
14.83125862682353
 10
-86.47500000000008
 20
61.42621829042186
 42
-0.3400348889730166
 10
-85.73180725240934
 20
62.39268093072936
 42
-0.1529057558139657
 10
8.072737191763053
 20
58.2866630711757
 42
-0.005982518359953494
 10
11.59233965584502
 20
56.96520731998524
 42
-0.03062205282673592
 10
29.04878641835865
 20
48.90938722886576
 42
-0.2760075910121405
 10
29.57500000000007
 20
48.02874744451638
 10
29.57500000000001
 20
-9.525000000000079
 42
-0.4142135623730955
  0
LWPOLYLINE
  5
54
100
AcDbEntity
  8
0
  6
ByLayer
 62
  256
370
   -1
100
AcDbPolyline
 90
    8
 70
    1
 43
0
 10
-45.10000000000002
 20
24.69999999999999
 10
-45.10000000000002
 20
11.29999999999999
 42
0.4142135623730969
 10
-44.8
 20
10.99999999999999
 10
-31.4
 20
10.99999999999999
 42
0.4142135623730935
 10
-31.1
 20
11.29999999999999
 10
-31.1
 20
24.69999999999999
 42
0.414213562373102
 10
-31.4
 20
25
 10
-44.80000000000001
 20
25
 42
0.4142135623730984
  0
LWPOLYLINE
  5
55
100
AcDbEntity
  8
0
  6
ByLayer
 62
  256
370
   -1
100
AcDbPolyline
 90
    8
 70
    1
 43
0
 10
-31.1
 20
49.40000000000001
 10
-31.1
 20
62.8
 42
0.4142135623730951
 10
-31.4
 20
63.09999999999998
 10
-44.80000000000001
 20
63.09999999999998
 42
0.4142135623730951
 10
-45.10000000000002
 20
62.8
 10
-45.1
 20
49.40000000000001
 42
0.414213562373088
 10
-44.8
 20
49.1
 10
-31.4
 20
49.09999999999999
 42
0.4142135623730987
  0
LWPOLYLINE
  5
56
100
AcDbEntity
  8
0
  6
ByLayer
 62
  256
370
   -1
100
AcDbPolyline
 90
    8
 70
    1
 43
0
 10
-83.2
 20
15.70000000000002
 10
-83.2
 20
2.299999999999995
 42
0.4142135623730971
 10
-82.90000000000001
 20
1.999999999999995
 10
-69.50000000000001
 20
1.999999999999995
 42
0.4142135623730836
 10
-69.20000000000003
 20
2.299999999999995
 10
-69.2
 20
15.70000000000002
 42
0.4142135623730882
 10
-69.50000000000001
 20
16.00000000000002
 10
-82.90000000000001
 20
16.00000000000002
 42
0.4142135623730966
  0
LWPOLYLINE
  5
57
100
AcDbEntity
  8
0
  6
ByLayer
 62
  256
370
   -1
100
AcDbPolyline
 90
    8
 70
    1
 43
0
 10
-52.38589133288106
 20
-0.8698278197855647
 10
-52.38589133288103
 20
-14.26982781978564
 42
0.4142135623730967
 10
-52.08589133288103
 20
-14.56982781978564
 10
-38.68589133288103
 20
-14.56982781978565
 42
0.414213562373095
 10
-38.38589133288103
 20
-14.26982781978565
 10
-38.38589133288102
 20
-0.8698278197855108
 42
0.4142135623731011
 10
-38.68589133288103
 20
-0.5698278197855126
 10
-52.08589133288106
 20
-0.5698278197855658
 42
0.4142135623730958
  0
LWPOLYLINE
  5
58
100
AcDbEntity
  8
0
  6
ByLayer
 62
  256
370
   -1
100
AcDbPolyline
 90
    8
 70
    1
 43
0
 10
-25.74999999999992
 20
43.09999999999991
 10
-12.34999999999992
 20
43.09999999999991
 42
0.4142135623730916
 10
-12.04999999999992
 20
43.39999999999991
 10
-12.04999999999992
 20
56.79999999999991
 42
0.414213562373095
 10
-12.34999999999992
 20
57.09999999999991
 10
-25.74999999999992
 20
57.09999999999991
 42
0.4142135623730985
 10
-26.04999999999992
 20
56.79999999999991
 10
-26.04999999999992
 20
43.39999999999991
 42
0.414213562373095
  0
LWPOLYLINE
  5
59
100
AcDbEntity
  8
0
  6
ByLayer
 62
  256
370
   -1
100
AcDbPolyline
 90
    8
 70
    1
 43
0
 10
6.700000000000097
 20
26.05000000000004
 10
-6.700000000000035
 20
26.05000000000003
 42
0.4142135623730933
 10
-7.000000000000037
 20
25.75000000000004
 10
-7.000000000000036
 20
12.35000000000003
 42
0.414213562373095
 10
-6.700000000000035
 20
12.05000000000004
 10
6.699999999999968
 20
12.05000000000004
 42
0.4142135623730935
 10
6.999999999999971
 20
12.35000000000003
 10
7.000000000000099
 20
25.75000000000003
 42
0.4142135623731003
  0
LWPOLYLINE
  5
5A
100
AcDbEntity
  8
0
  6
ByLayer
 62
  256
370
   -1
100
AcDbPolyline
 90
    8
 70
    1
 43
0
 10
-7.000000000000037
 20
6.700000000000034
 10
-7.000000000000037
 20
-6.699999999999965
 42
0.4142135623730966
 10
-6.700000000000035
 20
-6.999999999999967
 10
6.699999999999968
 20
-6.999999999999966
 42
0.4142135623730919
 10
6.999999999999971
 20
-6.699999999999969
 10
7.000000000000099
 20
6.700000000000031
 42
0.4142135623731003
 10
6.700000000000097
 20
7.000000000000036
 10
-6.700000000000035
 20
7.000000000000036
 42
0.4142135623730966
  0
LWPOLYLINE
  5
5B
100
AcDbEntity
  8
0
  6
ByLayer
 62
  256
370
   -1
100
AcDbPolyline
 90
    8
 70
    1
 43
0
 10
6.700000000000097
 20
45.10000000000004
 10
-6.700000000000035
 20
45.10000000000005
 42
0.4142135623731
 10
-7.000000000000037
 20
44.80000000000004
 10
-7.000000000000036
 20
31.40000000000003
 42
0.4142135623730924
 10
-6.700000000000035
 20
31.10000000000004
 10
6.699999999999968
 20
31.10000000000004
 42
0.4142135623730927
 10
6.999999999999971
 20
31.40000000000003
 10
7.000000000000099
 20
44.80000000000004
 42
0.4142135623731003
  0
LWPOLYLINE
  5
5C
100
AcDbEntity
  8
0
  6
ByLayer
 62
  256
370
   -1
100
AcDbPolyline
 90
    8
 70
    1
 43
0
 10
-63.85000000000002
 20
42.60000000000001
 10
-50.45000000000001
 20
42.60000000000001
 42
0.4142135623730883
 10
-50.15000000000002
 20
42.90000000000001
 10
-50.14999999999999
 20
56.30000000000001
 42
0.414213562373109
 10
-50.45
 20
56.60000000000001
 10
-63.85000000000001
 20
56.60000000000001
 42
0.4142135623730742
 10
-64.14999999999999
 20
56.30000000000001
 10
-64.15000000000002
 20
42.90000000000001
 42
0.414213562373095
  0
LWPOLYLINE
  5
5D
100
AcDbEntity
  8
0
  6
ByLayer
 62
  256
370
   -1
100
AcDbPolyline
 90
    8
 70
    1
 43
0
 10
-63.85000000000002
 20
23.55
 10
-50.45000000000001
 20
23.55
 42
0.4142135623730846
 10
-50.15000000000001
 20
23.85
 10
-50.14999999999999
 20
37.25000000000001
 42
0.4142135623730951
 10
-50.45
 20
37.55
 10
-63.85000000000001
 20
37.55
 42
0.4142135623730742
 10
-64.15000000000001
 20
37.25000000000001
 10
-64.15000000000002
 20
23.85
 42
0.4142135623730916
  0
LWPOLYLINE
  5
5E
100
AcDbEntity
  8
0
  6
ByLayer
 62
  256
370
   -1
100
AcDbPolyline
 90
    8
 70
    1
 43
0
 10
-31.1
 20
30.34999999999999
 10
-31.1
 20
43.74999999999999
 42
0.4142135623730916
 10
-31.4
 20
44.04999999999999
 10
-44.80000000000001
 20
44.04999999999998
 42
0.4142135623730882
 10
-45.10000000000002
 20
43.74999999999999
 10
-45.1
 20
30.34999999999999
 42
0.4142135623730916
 10
-44.8
 20
30.04999999999999
 10
-31.4
 20
30.04999999999999
 42
0.414213562373095
  0
LWPOLYLINE
  5
5F
100
AcDbEntity
  8
0
  6
ByLayer
 62
  256
370
   -1
100
AcDbPolyline
 90
    8
 70
    1
 43
0
 10
-83.2
 20
34.75000000000002
 10
-83.20000000000002
 20
21.34999999999999
 42
0.4142135623731054
 10
-82.90000000000001
 20
21.05
 10
-69.50000000000001
 20
21.05
 42
0.4142135623730776
 10
-69.20000000000003
 20
21.34999999999999
 10
-69.2
 20
34.75000000000002
 42
0.414213562373095
 10
-69.50000000000001
 20
35.05000000000003
 10
-82.90000000000001
 20
35.05000000000002
 42
0.4142135623731156
  0
LWPOLYLINE
  5
60
100
AcDbEntity
  8
0
  6
ByLayer
 62
  256
370
   -1
100
AcDbPolyline
 90
    8
 70
    1
 43
0
 10
-58.08101784667554
 20
-15.01960544940284
 10
-61.54919305104931
 20
-2.076199377129555
 42
0.414213562373093
 10
-61.91661651246677
 20
-1.864067342773585
 10
-74.86002258474005
 20
-5.332242547147237
 42
0.4142135623730944
 10
-75.07215461909601
 20
-5.699666008564711
 10
-71.60397941472255
 20
-18.64307208083788
 42
0.4142135623731008
 10
-71.23655595330507
 20
-18.85520411519385
 10
-58.2931498810315
 20
-15.38702891082032
 42
0.4142135623731099
  0
LWPOLYLINE
  5
61
100
AcDbEntity
  8
0
  6
ByLayer
 62
  256
370
   -1
100
AcDbPolyline
 90
    8
 70
    1
 43
0
 10
-25.74999999999992
 20
24.04999999999991
 10
-12.34999999999992
 20
24.04999999999992
 42
0.4142135623730971
 10
-12.04999999999992
 20
24.34999999999992
 10
-12.04999999999992
 20
37.74999999999991
 42
0.4142135623730916
 10
-12.34999999999992
 20
38.04999999999991
 10
-25.74999999999992
 20
38.04999999999991
 42
0.414213562373095
 10
-26.04999999999992
 20
37.74999999999991
 10
-26.04999999999992
 20
24.34999999999991
 42
0.4142135623730916
  0
LWPOLYLINE
  5
62
100
AcDbEntity
  8
0
  6
ByLayer
 62
  256
370
   -1
100
AcDbPolyline
 90
    8
 70
    1
 43
0
 10
12.04999999999999
 20
25.74999000000002
 10
12.05
 20
12.34999000000001
 42
0.414213562373095
 10
12.35
 20
12.04999
 10
25.75
 20
12.04999
 42
0.4142135623730966
 10
26.05
 20
12.34999
 10
26.05
 20
25.74999000000002
 42
0.4142135623730953
 10
25.75000000000001
 20
26.04999000000002
 10
12.34999999999999
 20
26.04999000000002
 42
0.4142135623730933
  0
LWPOLYLINE
  5
63
100
AcDbEntity
  8
0
  6
ByLayer
 62
  256
370
   -1
100
AcDbPolyline
 90
    8
 70
    1
 43
0
 10
-26.04999999999992
 20
18.69999999999991
 10
-26.04999999999992
 20
5.299999999999912
 42
0.4142135623731001
 10
-25.74999999999992
 20
4.999999999999911
 10
-12.34999999999992
 20
4.999999999999913
 42
0.4142135623730945
 10
-12.04999999999992
 20
5.299999999999914
 10
-12.04999999999992
 20
18.69999999999991
 42
0.414213562373095
 10
-12.34999999999992
 20
18.99999999999991
 10
-25.74999999999992
 20
18.99999999999991
 42
0.4142135623730985
  0
LWPOLYLINE
  5
64
100
AcDbEntity
  8
0
  6
ByLayer
 62
  256
370
   -1
100
AcDbPolyline
 90
    8
 70
    1
 43
0
 10
-83.2
 20
53.80000000000003
 10
-83.2
 20
40.40000000000001
 42
0.414213562373095
 10
-82.90000000000001
 20
40.10000000000001
 10
-69.50000000000001
 20
40.10000000000002
 42
0.4142135623730813
 10
-69.20000000000003
 20
40.40000000000001
 10
-69.2
 20
53.80000000000003
 42
0.4142135623730882
 10
-69.50000000000001
 20
54.10000000000004
 10
-82.90000000000001
 20
54.10000000000003
 42
0.414213562373095
  0
LWPOLYLINE
  5
65
100
AcDbEntity
  8
0
  6
ByLayer
 62
  256
370
   -1
100
AcDbPolyline
 90
    8
 70
    1
 43
0
 10
-64.15000000000001
 20
18.20000000000001
 10
-64.15000000000003
 20
4.800000000000003
 42
0.4142135623731044
 10
-63.85000000000002
 20
4.500000000000001
 10
-50.45000000000001
 20
4.500000000000003
 42
0.414213562373095
 10
-50.15000000000001
 20
4.800000000000002
 10
-50.14999999999999
 20
18.2
 42
0.4142135623730987
 10
-50.45
 20
18.50000000000001
 10
-63.85000000000001
 20
18.50000000000001
 42
0.4142135623730777
  0
LWPOLYLINE
  5
66
100
AcDbEntity
  8
0
  6
ByLayer
 62
  256
370
   -1
100
AcDbPolyline
 90
    8
 70
    1
 43
0
 10
25.74528520196727
 20
7.001278835316031
 10
12.34528520196714
 20
7.00127883531602
 42
0.4142135623730933
 10
12.04528520196713
 20
6.70127883531603
 10
12.04528520196714
 20
-6.698721164683981
 42
0.414213562373095
 10
12.34528520196714
 20
-6.998721164683969
 10
25.74528520196714
 20
-6.998721164683969
 42
0.4142135623730935
 10
26.04528520196715
 20
-6.698721164683979
 10
26.04528520196727
 20
6.701278835316019
 42
0.4142135623731003
  0
LWPOLYLINE
  5
67
100
AcDbEntity
  8
0
  6
ByLayer
 62
  256
370
   -1
100
AcDbPolyline
 90
    8
 70
    1
 43
0
 10
25.74846316643358
 20
45.09974212676801
 10
12.34846316643345
 20
45.09974212676799
 42
0.4142135623730933
 10
12.04846316643345
 20
44.799742126768
 10
12.04846316643345
 20
31.39974212676799
 42
0.414213562373095
 10
12.34846316643345
 20
31.099742126768
 10
25.74846316643345
 20
31.099742126768
 42
0.4142135623730935
 10
26.04846316643345
 20
31.39974212676799
 10
26.04846316643358
 20
44.79974212676799
 42
0.4142135623731003
  0
LWPOLYLINE
  5
68
100
AcDbEntity
  8
0
  6
ByLayer
 62
  256
370
   -1
100
AcDbPolyline
 90
    8
 70
    1
 43
0
 10
-19.63807232810838
 20
-0.5683869942843565
 10
-33.03807232810851
 20
-0.5683869942843667
 42
0.4142135623730933
 10
-33.33807232810851
 20
-0.8683869942843572
 10
-33.33807232810851
 20
-14.26838699428436
 42
0.414213562373095
 10
-33.03807232810851
 20
-14.56838699428436
 10
-19.63807232810851
 20
-14.56838699428436
 42
0.4142135623730935
 10
-19.3380723281085
 20
-14.26838699428437
 10
-19.33807232810837
 20
-0.8683869942843677
 42
0.4142135623731003
  0
LWPOLYLINE
  5
69
100
AcDbEntity
  8
0
  6
ByLayer
 62
  256
370
   -1
100
AcDbPolyline
 90
    8
 70
    1
 43
0
 10
-84.01924654712975
 20
-9.132189368559921
 10
-95.62436241282398
 20
-15.83153901937048
 42
0.4142135623730933
 10
-95.73419299972437
 20
-16.24134048615789
 10
-89.03484334891388
 20
-27.84645635185202
 42
0.4142135623730949
 10
-88.62504188212647
 20
-27.95628693875239
 10
-77.01992601643235
 20
-21.2569372879419
 42
0.4142135623730938
 10
-76.91009542953196
 20
-20.84713582115448
 10
-83.60944508034233
 20
-9.242019955460311
 42
0.4142135623731
  0
LWPOLYLINE
  5
6A
100
AcDbEntity
  8
0
  6
ByLayer
 62
  256
370
   -1
100
AcDbPolyline
 90
    8
 70
    1
 43
0
 10
-93.5463635095534
 20
7.35786390823701
 10
-105.1514793752476
 20
0.6585142574264478
 42
0.4142135623730933
 10
-105.261309962148
 20
0.2487127906390425
 10
-98.56196031133753
 20
-11.35640307505508
 42
0.4142135623730949
 10
-98.15215884455012
 20
-11.46623366195546
 10
-86.547042978856
 20
-4.766884011144968
 42
0.4142135623730938
 10
-86.43721239195561
 20
-4.357082544357552
 10
-93.13656204276597
 20
7.248033321336621
 42
0.4142135623731
  0
LWPOLYLINE
  5
6B
100
AcDbEntity
  8
0
  6
ByLayer
 62
  256
370
   -1
100
AcDbPolyline
 90
    8
 70
    1
 43
0
 10
-103.4896483131698
 20
-21.86332739256811
 10
-112.9646990705606
 20
-31.33873836755344
 42
0.4142135623730929
 10
-112.9646910059876
 20
-31.76300243618871
 10
-103.4892800310023
 20
-41.23805319357938
 42
0.4142135623730945
 10
-103.0650159623671
 20
-41.23804512900637
 10
-93.58996520497638
 20
-31.76263415402114
 42
0.414213562373094
 10
-93.5899732695494
 20
-31.33837008538586
 10
-103.0653842445345
 20
-21.8633193279951
 42
0.4142135623731003
  0
LWPOLYLINE
  5
6C
100
AcDbEntity
  8
0
  6
ByLayer
 62
  256
370
   -1
100
AcDbPolyline
 90
    8
 70
    1
 43
0
 10
-116.9610867815631
 20
-8.401969352623013
 10
-126.4361375389539
 20
-17.87738032760834
 42
0.4142135623730929
 10
-126.4361294743809
 20
-18.30164439624361
 10
-116.9607184993956
 20
-27.77669515363428
 42
0.4142135623730945
 10
-116.5364544307604
 20
-27.77668708906127
 10
-107.0614036733697
 20
-18.30127611407604
 42
0.414213562373094
 10
-107.0614117379427
 20
-17.87701204544075
 10
-116.5368227129278
 20
-8.401961288050005
 42
0.4142135623731003
  0
ENDSEC
  0
SECTION
  2
OBJECTS
  0
DICTIONARY
  5
C
330
0
100
AcDbDictionary
281
    1
  3
ACAD_GROUP
350
D
  0
DICTIONARY
  5
D
330
C
100
AcDbDictionary
281
    1
  0
ENDSEC
  0
EOF
